<svg xmlns="http://www.w3.org/2000/svg" width="60" height="50" viewBox="0 0 60 50">
  <metadata><?xpacket begin="﻿" id="W5M0MpCehiHzreSzNTczkc9d"?>
<x:xmpmeta xmlns:x="adobe:ns:meta/" x:xmptk="Adobe XMP Core 5.6-c138 79.159824, 2016/09/14-01:09:01        ">
   <rdf:RDF xmlns:rdf="http://www.w3.org/1999/02/22-rdf-syntax-ns#">
      <rdf:Description rdf:about=""/>
   </rdf:RDF>
</x:xmpmeta>
                                                                                                    
                                                                                                    
                                                                                                    
                                                                                                    
                                                                                                    
                                                                                                    
                                                                                                    
                                                                                                    
                                                                                                    
                                                                                                    
                                                                                                    
                                                                                                    
                                                                                                    
                                                                                                    
                                                                                                    
                                                                                                    
                                                                                                    
                                                                                                    
                                                                                                    
                                                                                                    
                           
<?xpacket end="w"?></metadata>
<defs>
    <style>
      .cls-1 {
        fill: #bb292e;
        fill-rule: evenodd;
      }
    </style>
  </defs>
  <path id="Path" class="cls-1" d="M1208.73,8914.63h-2.18a5.417,5.417,0,0,1-10.63-.02c-0.03,0-.05.02-0.08,0.02h-23.86c-0.99,7.07-10.16,4.86-10.68-.52a5.452,5.452,0,0,1-3.3-4.86v-23.38a4.569,4.569,0,0,1,4.51-4.87h36.52a4.991,4.991,0,0,1,4.98,3.17l2.91,7.91a2.487,2.487,0,0,0,1.19,1.32l2.93,1.47a5.457,5.457,0,0,1,2.96,4.56v10.33C1214,8912.44,1211.43,8914.63,1208.73,8914.63Zm-7.5,1.71a2.74,2.74,0,1,0-2.75-2.74A2.746,2.746,0,0,0,1201.23,8916.34Zm-34.56,0a2.74,2.74,0,1,0-2.64-3.49,1.386,1.386,0,0,1,.03.54,1.845,1.845,0,0,1-.12.4A2.742,2.742,0,0,0,1166.67,8916.34Zm26-32.69h-30.16c-1.23,0-1.84,1-1.84,2.22v18.14h32v-20.36Zm8.85,1.43a2.508,2.508,0,0,0-2.49-1.43h-3.7v9.74h9.33a2.928,2.928,0,0,1-.19-0.4Zm9.81,14.35a2.824,2.824,0,0,0-1.58-2.24l-2.26-1.16c-0.03,0-.06.01-0.09,0.01h-12.07v7.97h16v-4.58Zm0,7.23h-50.66v2.59a2.645,2.645,0,0,0,1.08,2.11,5.392,5.392,0,0,1,10.05.61h24.04a1.7,1.7,0,0,1,.24.05,5.386,5.386,0,0,1,10.3-.02,0.5,0.5,0,0,1,.13-0.03h2.22a2.57,2.57,0,0,0,2.6-2.21v-3.1Z" transform="translate(-1156 -8875.045)"/>
</svg>
