<svg xmlns="http://www.w3.org/2000/svg" width="60" height="50" viewBox="0 0 60 50">
  <metadata><?xpacket begin="﻿" id="W5M0MpCehiHzreSzNTczkc9d"?>
<x:xmpmeta xmlns:x="adobe:ns:meta/" x:xmptk="Adobe XMP Core 5.6-c138 79.159824, 2016/09/14-01:09:01        ">
   <rdf:RDF xmlns:rdf="http://www.w3.org/1999/02/22-rdf-syntax-ns#">
      <rdf:Description rdf:about=""/>
   </rdf:RDF>
</x:xmpmeta>
                                                                                                    
                                                                                                    
                                                                                                    
                                                                                                    
                                                                                                    
                                                                                                    
                                                                                                    
                                                                                                    
                                                                                                    
                                                                                                    
                                                                                                    
                                                                                                    
                                                                                                    
                                                                                                    
                                                                                                    
                                                                                                    
                                                                                                    
                                                                                                    
                                                                                                    
                                                                                                    
                           
<?xpacket end="w"?></metadata>
<defs>
    <style>
      .cls-1 {
        fill: #bb292e;
        fill-rule: evenodd;
      }
    </style>
  </defs>
  <path id="pay" class="cls-1" d="M1417.36,8908.78h-1.21v8.55a3.662,3.662,0,0,1-3.65,3.67h-38.86a3.653,3.653,0,0,1-3.64-3.67v-28.11a3.651,3.651,0,0,1,3.64-3.66h6.08l7.88-6.95-0.11-.15,1.94-1.46,1.6,1.84-0.14.12,2.18,2.93a1.175,1.175,0,0,1,.22.64l15.57-5.53,3.64,7.33a1.206,1.206,0,0,1-.1,1.23h0.1a3.66,3.66,0,0,1,3.65,3.66V8899h1.21a3.651,3.651,0,0,1,3.64,3.66v2.45A3.653,3.653,0,0,1,1417.36,8908.78Zm-28.3-28.21-5.66,4.99h4.03a1.21,1.21,0,0,1,.79-1.23l2.88-1.02Zm21.27,4.85-2.69-5.4-15.58,5.54h18.37A1.7,1.7,0,0,1,1410.33,8885.42Zm3.39,7.05v-3.25a1.225,1.225,0,0,0-1.22-1.22h-38.86a1.223,1.223,0,0,0-1.21,1.22v28.11a1.223,1.223,0,0,0,1.21,1.22h38.86a1.225,1.225,0,0,0,1.22-1.22v-8.55h-1.22a3.653,3.653,0,0,1-3.64-3.67v-2.45a3.651,3.651,0,0,1,3.64-3.66h1.22v-6.53Zm4.85,10.19a1.223,1.223,0,0,0-1.21-1.22h-4.86a1.223,1.223,0,0,0-1.21,1.22v2.45a1.216,1.216,0,0,0,1.21,1.22h4.86a1.216,1.216,0,0,0,1.21-1.22v-2.45Z" transform="translate(-1365.5 -8874)"/>
</svg>
