<svg xmlns="http://www.w3.org/2000/svg" width="60" height="50" viewBox="0 0 60 50">
  <metadata><?xpacket begin="﻿" id="W5M0MpCehiHzreSzNTczkc9d"?>
<x:xmpmeta xmlns:x="adobe:ns:meta/" x:xmptk="Adobe XMP Core 5.6-c138 79.159824, 2016/09/14-01:09:01        ">
   <rdf:RDF xmlns:rdf="http://www.w3.org/1999/02/22-rdf-syntax-ns#">
      <rdf:Description rdf:about=""/>
   </rdf:RDF>
</x:xmpmeta>
                                                                                                    
                                                                                                    
                                                                                                    
                                                                                                    
                                                                                                    
                                                                                                    
                                                                                                    
                                                                                                    
                                                                                                    
                                                                                                    
                                                                                                    
                                                                                                    
                                                                                                    
                                                                                                    
                                                                                                    
                                                                                                    
                                                                                                    
                                                                                                    
                                                                                                    
                                                                                                    
                           
<?xpacket end="w"?></metadata>
<defs>
    <style>
      .cls-1 {
        fill: #bb292e;
        fill-rule: evenodd;
      }
    </style>
  </defs>
  <path id="Composite_Path" data-name="Composite Path" class="cls-1" d="M982.754,8906.36l-8.49,8.49a7.338,7.338,0,0,1-10.379,0l-26.759-26.74a7.348,7.348,0,0,1,0-10.38l8.49-8.49a4.268,4.268,0,0,1,6.016,0l4.657,4.66a4.253,4.253,0,0,1,0,6.01l-4.21,4.21,16.394,16.39,4.21-4.21a4.244,4.244,0,0,1,6.016,0l4.055,4.05A4.244,4.244,0,0,1,982.754,8906.36Zm-29.919-26.29,1.8-1.81a1.919,1.919,0,0,0,0-2.71l-4.658-4.66a1.949,1.949,0,0,0-2.714,0l-1.805,1.81Zm16.463,22.91a1.2,1.2,0,0,1-1.65,0L949.6,8884.94a1.166,1.166,0,0,1,0-1.65l1.581-1.58-7.372-7.36-5.035,5.03a5.012,5.012,0,0,0,0,7.08l26.758,26.74a5,5,0,0,0,7.079,0l5.035-5.03-6.77-6.77ZM981.1,8902l-4.056-4.05a1.955,1.955,0,0,0-2.714,0l-1.8,1.8,6.771,6.77,1.8-1.81a1.893,1.893,0,0,0,.562-1.35A1.916,1.916,0,0,0,981.1,8902Zm0.316-7.63a1.173,1.173,0,0,1-1.167-1.17,6.316,6.316,0,0,0-12.631,0,1.167,1.167,0,1,1-2.334,0,8.656,8.656,0,0,1,5.428-8.02,5.259,5.259,0,1,1,6.443,0,8.657,8.657,0,0,1,5.428,8.02A1.173,1.173,0,0,1,981.42,8894.37Zm-7.482-16.23a2.92,2.92,0,1,0,2.923,2.92A2.926,2.926,0,0,0,973.938,8878.14Z" transform="translate(-929.485 -8867.5)"/>
</svg>
